<?xml version="1.0" encoding="UTF-8"?>
<svg id="Layer_2" data-name="Layer 2" xmlns="http://www.w3.org/2000/svg" viewBox="0 0 81.5 105.07">
  <defs>
    <style>
      .cls-1 {
        fill: #29316e;
      }

      .cls-1, .cls-2, .cls-3 {
        stroke-width: 0px;
      }

      .cls-2 {
        fill: #00b7c8;
      }

      .cls-3 {
        fill: #0184b0;
      }
    </style>
  </defs>
  <g id="Layer_1-2" data-name="Layer 1">
    <path class="cls-2" d="m45.2,27.98c4.29-9.49,9.03-18.8,13.95-27.98,9.23,5.76,17.34,14.19,20.66,24.74,3.02,9.17,1.83,19.43-2.4,28.02-9.02,17.26-17.44,34.82-26.31,52.16-4.57-3.66-8.52-8.02-11.99-12.73,2.51-5.99,5.78-11.62,8.58-17.47,3.78-7.68,8.62-15.51,8.09-24.41.18-8.64-4.64-16.43-10.58-22.33Z"/>
    <path class="cls-3" d="m22.66,52.4c5.01-9.52,9.65-19.22,14.55-28.8,7.41,4.82,14.15,11.67,16.29,20.5,2.15,7.47.22,15.48-3.28,22.23-4.92,10.03-10.1,19.94-15.01,29.99-1.53,2.91-2.66,6.06-4.76,8.63-3.83-4.21-8.78-8.11-10.64-13.58,3.13-7.94,9.18-15.09,9.14-24,.11-5.67-3.18-10.52-6.29-14.97Z"/>
    <path class="cls-1" d="m15.55,49.24c4.52,1.7,7.62,5.88,9.92,9.96,3.39,6.02,2.19,13.5-.95,19.36-4.59,8.77-8.74,17.76-13.36,26.51-5.29-4.68-9.7-10.8-10.92-17.89-.86-4.25.7-8.51,2.54-12.29,4.3-8.53,8.63-17.04,12.77-25.65Z"/>
  </g>
</svg>